<?xml version="1.0" encoding="UTF-8" standalone="no"?>
<!DOCTYPE svg PUBLIC "-//W3C//DTD SVG 1.1//EN"
 "http://www.w3.org/Graphics/SVG/1.1/DTD/svg11.dtd">
<!-- Generated by graphviz version 2.40.1 (20161225.0304)
 -->
<!-- Title: dependencies Pages: 1 -->
<svg width="1088pt" height="423pt"
 viewBox="0.00 0.00 1088.00 423.00" xmlns="http://www.w3.org/2000/svg" xmlns:xlink="http://www.w3.org/1999/xlink">
<g id="graph0" class="graph" transform="scale(1 1) rotate(0) translate(4 419)">
<title>dependencies</title>
<polygon fill="#ffffff" stroke="transparent" points="-4,4 -4,-419 1084,-419 1084,4 -4,4"/>
<text text-anchor="start" x="519.0091" y="-42.4" font-family="sans-serif" font-weight="bold" font-size="14.00" fill="#000000">Legend</text>
<polygon fill="#ffffb3" stroke="transparent" points="306,-10 306,-30 326,-30 326,-10 306,-10"/>
<text text-anchor="start" x="329.629" y="-15.4" font-family="sans-serif" font-size="14.00" fill="#000000"> &#160;Declarations</text>
<polygon fill="#8dd3c7" stroke="transparent" points="419,-10 419,-30 439,-30 439,-10 419,-10"/>
<text text-anchor="start" x="442.7251" y="-15.4" font-family="sans-serif" font-size="14.00" fill="#000000"> &#160;Module</text>
<polygon fill="#80b1d3" stroke="transparent" points="505,-10 505,-30 525,-30 525,-10 505,-10"/>
<text text-anchor="start" x="528.7812" y="-15.4" font-family="sans-serif" font-size="14.00" fill="#000000"> &#160;Bootstrap</text>
<polygon fill="#fdb462" stroke="transparent" points="602,-10 602,-30 622,-30 622,-10 602,-10"/>
<text text-anchor="start" x="625.6732" y="-15.4" font-family="sans-serif" font-size="14.00" fill="#000000"> &#160;Providers</text>
<polygon fill="#fb8072" stroke="transparent" points="698,-10 698,-30 718,-30 718,-10 698,-10"/>
<text text-anchor="start" x="721.7258" y="-15.4" font-family="sans-serif" font-size="14.00" fill="#000000"> &#160;Exports</text>
<g id="clust1" class="cluster">
<title>cluster_ApiModule</title>
<polygon fill="none" stroke="#000000" stroke-dasharray="1,5" points="8,-70 8,-198 318,-198 318,-70 8,-70"/>
</g>
<g id="clust3" class="cluster">
<title>cluster_ApiModule_imports</title>
<polygon fill="none" stroke="#000000" points="210,-78 210,-130 310,-130 310,-78 210,-78"/>
</g>
<g id="clust6" class="cluster">
<title>cluster_ApiModule_providers</title>
<polygon fill="none" stroke="#000000" points="16,-78 16,-130 202,-130 202,-78 16,-78"/>
</g>
<g id="clust7" class="cluster">
<title>cluster_AppModule</title>
<polygon fill="none" stroke="#000000" stroke-dasharray="1,5" points="326,-138 326,-407 708,-407 708,-138 326,-138"/>
</g>
<g id="clust8" class="cluster">
<title>cluster_AppModule_declarations</title>
<polygon fill="none" stroke="#000000" points="346,-211 346,-263 468,-263 468,-211 346,-211"/>
</g>
<g id="clust10" class="cluster">
<title>cluster_AppModule_imports</title>
<polygon fill="none" stroke="#000000" points="476,-146 476,-263 700,-263 700,-146 476,-146"/>
</g>
<g id="clust12" class="cluster">
<title>cluster_AppModule_bootstrap</title>
<polygon fill="none" stroke="#000000" points="409,-347 409,-399 533,-399 533,-347 409,-347"/>
</g>
<g id="clust14" class="cluster">
<title>cluster_CameraModule</title>
<polygon fill="none" stroke="#000000" stroke-dasharray="1,5" points="716,-271 716,-339 898,-339 898,-271 716,-271"/>
</g>
<g id="clust17" class="cluster">
<title>cluster_CameraModule_exports</title>
<polygon fill="none" stroke="#000000" points="724,-279 724,-331 890,-331 890,-279 724,-279"/>
</g>
<g id="clust20" class="cluster">
<title>cluster_UserModule</title>
<polygon fill="none" stroke="#000000" stroke-dasharray="1,5" points="906,-271 906,-339 1072,-339 1072,-271 906,-271"/>
</g>
<g id="clust23" class="cluster">
<title>cluster_UserModule_exports</title>
<polygon fill="none" stroke="#000000" points="914,-279 914,-331 1064,-331 1064,-279 914,-279"/>
</g>
<!-- HttpModule -->
<g id="node1" class="node">
<title>HttpModule</title>
<polygon fill="#8dd3c7" stroke="#000000" points="302.4387,-122 299.4387,-126 278.4387,-126 275.4387,-122 217.5613,-122 217.5613,-86 302.4387,-86 302.4387,-122"/>
<text text-anchor="middle" x="260" y="-99.8" font-family="Times,serif" font-size="14.00" fill="#000000">HttpModule</text>
</g>
<!-- ApiModule -->
<g id="node2" class="node">
<title>ApiModule</title>
<polygon fill="#8dd3c7" stroke="#000000" points="305.0483,-190 302.0483,-194 281.0483,-194 278.0483,-190 224.9517,-190 224.9517,-154 305.0483,-154 305.0483,-190"/>
<text text-anchor="middle" x="265" y="-167.8" font-family="Times,serif" font-size="14.00" fill="#000000">ApiModule</text>
</g>
<!-- HttpModule&#45;&gt;ApiModule -->
<g id="edge1" class="edge">
<title>HttpModule&#45;&gt;ApiModule</title>
<path fill="none" stroke="#000000" d="M263.4727,-122.2228C263.4727,-122.2228 263.4727,-143.7269 263.4727,-143.7269"/>
<polygon fill="#000000" stroke="#000000" points="259.9727,-143.7269 263.4727,-153.7269 266.9727,-143.727 259.9727,-143.7269"/>
</g>
<!-- CameraModule -->
<g id="node7" class="node">
<title>CameraModule</title>
<polygon fill="#8dd3c7" stroke="#000000" points="587.5814,-255 584.5814,-259 563.5814,-259 560.5814,-255 484.4186,-255 484.4186,-219 587.5814,-219 587.5814,-255"/>
<text text-anchor="middle" x="536" y="-232.8" font-family="Times,serif" font-size="14.00" fill="#000000">CameraModule</text>
</g>
<!-- ApiModule&#45;&gt;CameraModule -->
<g id="edge9" class="edge">
<title>ApiModule&#45;&gt;CameraModule</title>
<path fill="none" stroke="#000000" d="M305.1045,-166C366.203,-166 475.582,-166 475.582,-166 475.582,-166 475.582,-237 475.582,-237 475.582,-237 476.4477,-237 476.4477,-237"/>
<polygon fill="#000000" stroke="#000000" points="474.2385,-240.5001 484.2385,-237 474.2384,-233.5001 474.2385,-240.5001"/>
</g>
<!-- UserModule -->
<g id="node8" class="node">
<title>UserModule</title>
<polygon fill="#8dd3c7" stroke="#000000" points="691.9762,-255 688.9762,-259 667.9762,-259 664.9762,-255 606.0238,-255 606.0238,-219 691.9762,-219 691.9762,-255"/>
<text text-anchor="middle" x="649" y="-232.8" font-family="Times,serif" font-size="14.00" fill="#000000">UserModule</text>
</g>
<!-- ApiModule&#45;&gt;UserModule -->
<g id="edge12" class="edge">
<title>ApiModule&#45;&gt;UserModule</title>
<path fill="none" stroke="#000000" d="M265,-190.0449C265,-197.749 265,-205 265,-205 265,-205 634.6706,-205 634.6706,-205 634.6706,-205 634.6706,-208.7566 634.6706,-208.7566"/>
<polygon fill="#000000" stroke="#000000" points="631.1707,-208.7566 634.6706,-218.7566 638.1707,-208.7566 631.1707,-208.7566"/>
</g>
<!-- CameraApiService -->
<g id="node3" class="node">
<title>CameraApiService</title>
<ellipse fill="#fdb462" stroke="#000000" cx="109" cy="-104" rx="84.5054" ry="18"/>
<text text-anchor="middle" x="109" y="-99.8" font-family="Times,serif" font-size="14.00" fill="#000000">CameraApiService</text>
</g>
<!-- CameraApiService&#45;&gt;ApiModule -->
<g id="edge2" class="edge">
<title>CameraApiService&#45;&gt;ApiModule</title>
<path fill="none" stroke="#000000" d="M109,-122.2228C109,-142.3652 109,-172 109,-172 109,-172 214.8261,-172 214.8261,-172"/>
<polygon fill="#000000" stroke="#000000" points="214.8262,-175.5001 224.8261,-172 214.8261,-168.5001 214.8262,-175.5001"/>
</g>
<!-- AppComponent -->
<g id="node4" class="node">
<title>AppComponent</title>
<polygon fill="#ffffb3" stroke="#000000" points="459.9399,-255 354.0601,-255 354.0601,-219 459.9399,-219 459.9399,-255"/>
<text text-anchor="middle" x="407" y="-232.8" font-family="Times,serif" font-size="14.00" fill="#000000">AppComponent</text>
</g>
<!-- AppModule -->
<g id="node5" class="node">
<title>AppModule</title>
<polygon fill="#8dd3c7" stroke="#000000" points="512.6571,-323 509.6571,-327 488.6571,-327 485.6571,-323 429.3429,-323 429.3429,-287 512.6571,-287 512.6571,-323"/>
<text text-anchor="middle" x="471" y="-300.8" font-family="Times,serif" font-size="14.00" fill="#000000">AppModule</text>
</g>
<!-- AppComponent&#45;&gt;AppModule -->
<g id="edge3" class="edge">
<title>AppComponent&#45;&gt;AppModule</title>
<path fill="none" stroke="#000000" d="M444.4457,-255.2228C444.4457,-255.2228 444.4457,-276.7269 444.4457,-276.7269"/>
<polygon fill="#000000" stroke="#000000" points="440.9457,-276.7269 444.4457,-286.7269 447.9457,-276.727 440.9457,-276.7269"/>
</g>
<!-- AppComponent  -->
<g id="node9" class="node">
<title>AppComponent </title>
<polygon fill="#80b1d3" stroke="#000000" points="525.439,-391 416.561,-391 416.561,-355 525.439,-355 525.439,-391"/>
<text text-anchor="middle" x="471" y="-368.8" font-family="Times,serif" font-size="14.00" fill="#000000">AppComponent </text>
</g>
<!-- AppModule&#45;&gt;AppComponent  -->
<g id="edge7" class="edge">
<title>AppModule&#45;&gt;AppComponent </title>
<path fill="none" stroke="#000000" stroke-dasharray="1,5" d="M471,-323.2228C471,-323.2228 471,-344.7269 471,-344.7269"/>
<polygon fill="#000000" stroke="#000000" points="467.5001,-344.7269 471,-354.7269 474.5001,-344.727 467.5001,-344.7269"/>
</g>
<!-- BrowserModule -->
<g id="node6" class="node">
<title>BrowserModule</title>
<polygon fill="#8dd3c7" stroke="#000000" points="590.4734,-190 587.4734,-194 566.4734,-194 563.4734,-190 483.5266,-190 483.5266,-154 590.4734,-154 590.4734,-190"/>
<text text-anchor="middle" x="537" y="-167.8" font-family="Times,serif" font-size="14.00" fill="#000000">BrowserModule</text>
</g>
<!-- BrowserModule&#45;&gt;AppModule -->
<g id="edge4" class="edge">
<title>BrowserModule&#45;&gt;AppModule</title>
<path fill="none" stroke="#000000" d="M483.3872,-178C474.2549,-178 467.6508,-178 467.6508,-178 467.6508,-178 467.6508,-276.804 467.6508,-276.804"/>
<polygon fill="#000000" stroke="#000000" points="464.1509,-276.804 467.6508,-286.804 471.1509,-276.804 464.1509,-276.804"/>
</g>
<!-- BrowserModule&#45;&gt;CameraModule -->
<g id="edge8" class="edge">
<title>BrowserModule&#45;&gt;CameraModule</title>
<path fill="none" stroke="#000000" d="M536,-190.1061C536,-190.1061 536,-208.991 536,-208.991"/>
<polygon fill="#000000" stroke="#000000" points="532.5001,-208.9909 536,-218.991 539.5001,-208.991 532.5001,-208.9909"/>
</g>
<!-- BrowserModule&#45;&gt;UserModule -->
<g id="edge11" class="edge">
<title>BrowserModule&#45;&gt;UserModule</title>
<path fill="none" stroke="#000000" d="M590.575,-172C625.0061,-172 663.3294,-172 663.3294,-172 663.3294,-172 663.3294,-208.8939 663.3294,-208.8939"/>
<polygon fill="#000000" stroke="#000000" points="659.8295,-208.8938 663.3294,-218.8939 666.8295,-208.8939 659.8295,-208.8938"/>
</g>
<!-- CameraModule&#45;&gt;AppModule -->
<g id="edge5" class="edge">
<title>CameraModule&#45;&gt;AppModule</title>
<path fill="none" stroke="#000000" d="M498.6438,-255.2228C498.6438,-255.2228 498.6438,-276.7269 498.6438,-276.7269"/>
<polygon fill="#000000" stroke="#000000" points="495.1438,-276.7269 498.6438,-286.7269 502.1438,-276.727 495.1438,-276.7269"/>
</g>
<!-- CameraListComponent  -->
<g id="node10" class="node">
<title>CameraListComponent </title>
<polygon fill="#fb8072" stroke="#000000" points="882.1425,-323 731.8575,-323 731.8575,-287 882.1425,-287 882.1425,-323"/>
<text text-anchor="middle" x="807" y="-300.8" font-family="Times,serif" font-size="14.00" fill="#000000">CameraListComponent </text>
</g>
<!-- CameraModule&#45;&gt;CameraListComponent  -->
<g id="edge10" class="edge">
<title>CameraModule&#45;&gt;CameraListComponent </title>
<path fill="none" stroke="#000000" stroke-dasharray="5,2" d="M556.5051,-255.2667C556.5051,-273.5552 556.5051,-299 556.5051,-299 556.5051,-299 721.8433,-299 721.8433,-299"/>
<polygon fill="#000000" stroke="#000000" points="721.8433,-302.5001 731.8433,-299 721.8432,-295.5001 721.8433,-302.5001"/>
</g>
<!-- UserModule&#45;&gt;AppModule -->
<g id="edge6" class="edge">
<title>UserModule&#45;&gt;AppModule</title>
<path fill="none" stroke="#000000" d="M649,-255.2921C649,-277.2057 649,-311 649,-311 649,-311 522.7331,-311 522.7331,-311"/>
<polygon fill="#000000" stroke="#000000" points="522.7331,-307.5001 512.7331,-311 522.7331,-314.5001 522.7331,-307.5001"/>
</g>
<!-- UserListComponent  -->
<g id="node11" class="node">
<title>UserListComponent </title>
<polygon fill="#fb8072" stroke="#000000" points="1055.5372,-323 922.4628,-323 922.4628,-287 1055.5372,-287 1055.5372,-323"/>
<text text-anchor="middle" x="989" y="-300.8" font-family="Times,serif" font-size="14.00" fill="#000000">UserListComponent </text>
</g>
<!-- UserModule&#45;&gt;UserListComponent  -->
<g id="edge13" class="edge">
<title>UserModule&#45;&gt;UserListComponent </title>
<path fill="none" stroke="#000000" stroke-dasharray="5,2" d="M692.0612,-237C783.5505,-237 989,-237 989,-237 989,-237 989,-276.7772 989,-276.7772"/>
<polygon fill="#000000" stroke="#000000" points="985.5001,-276.7772 989,-286.7772 992.5001,-276.7773 985.5001,-276.7772"/>
</g>
</g>
</svg>
